<?xml version="1.0" standalone="no"?>
<!DOCTYPE svg PUBLIC "-//W3C//DTD SVG 20010904//EN"
 "http://www.w3.org/TR/2001/REC-SVG-20010904/DTD/svg10.dtd">
<svg version="1.0" xmlns="http://www.w3.org/2000/svg"
 width="1024.000000pt" height="1024.000000pt" viewBox="0 0 1024.000000 1024.000000"
 preserveAspectRatio="xMidYMid meet">
<metadata>
Created by potrace 1.14, written by Peter Selinger 2001-2017
</metadata>
<g transform="translate(0.000000,1024.000000) scale(0.100000,-0.100000)"
fill="#000000" stroke="none">
<path d="M7181 8179 c-1026 -450 -1866 -817 -1868 -815 -2 2 19 13 47 25 l50
22 0 424 0 424 -77 -33 c-43 -19 -967 -424 -2053 -901 -1086 -477 -1981 -869
-1987 -872 -10 -4 -13 -522 -13 -2544 0 -1396 3 -2539 7 -2539 4 0 823 287
1820 637 l1813 636 0 467 0 467 -382 -134 c-211 -74 -495 -174 -633 -223 -137
-48 -253 -85 -258 -81 -4 4 -6 611 -5 1350 l3 1342 635 279 635 279 3 404 2
404 26 11 c36 17 44 14 12 -4 l-28 -15 0 -394 c0 -217 2 -395 5 -395 3 0 205
88 450 195 244 107 446 195 449 195 4 0 6 -650 6 -1444 l0 -1444 -42 -16 c-24
-9 -227 -81 -453 -160 l-410 -144 -3 -737 c-2 -699 -1 -737 15 -733 33 9 4095
1438 4104 1444 11 6 12 5444 2 5443 -5 0 -847 -369 -1872 -820z m-1946 -854
c-38 -19 -74 -34 -80 -33 -5 0 22 15 60 33 39 19 75 34 80 33 6 0 -21 -15 -60
-33z m-160 -70 c-38 -19 -74 -34 -80 -33 -5 0 22 15 60 33 39 19 75 34 80 33
6 0 -21 -15 -60 -33z"/>
<path d="M4740 6297 l-1075 -472 -3 -1339 c-2 -1272 -1 -1338 15 -1331 14 5
1903 670 2111 742 l42 15 0 1429 c0 786 -3 1429 -7 1429 -5 -1 -492 -213
-1083 -473z"/>
</g>
</svg>
