<?xml version="1.0" encoding="UTF-8"?>
<svg width="924px" height="274px" viewBox="0 0 924 274" version="1.1" xmlns="http://www.w3.org/2000/svg" xmlns:xlink="http://www.w3.org/1999/xlink">
    <!-- Generator: Sketch 55.2 (78181) - https://sketchapp.com -->
    <title>Google_Play-Badge-Logo.wine</title>
    <desc>Created with Sketch.</desc>
    <defs>
        <linearGradient x1="53.0533026%" y1="95.5672592%" x2="43.5005001%" y2="27.8362328%" id="linearGradient-1">
            <stop stop-color="#00A0FF" offset="0%"></stop>
            <stop stop-color="#00A1FF" offset="0.657%"></stop>
            <stop stop-color="#00BEFF" offset="26.01%"></stop>
            <stop stop-color="#00D2FF" offset="51.22%"></stop>
            <stop stop-color="#00DFFF" offset="76.04%"></stop>
            <stop stop-color="#00E3FF" offset="100%"></stop>
        </linearGradient>
        <linearGradient x1="107.590059%" y1="50.8682306%" x2="-130.464095%" y2="50.8682306%" id="linearGradient-2">
            <stop stop-color="#FFE000" offset="0%"></stop>
            <stop stop-color="#FFBD00" offset="40.87%"></stop>
            <stop stop-color="#FFA500" offset="77.54%"></stop>
            <stop stop-color="#FF9C00" offset="100%"></stop>
        </linearGradient>
        <linearGradient x1="86.7248632%" y1="61.3550249%" x2="-50.4797161%" y2="-1.1437374%" id="linearGradient-3">
            <stop stop-color="#FF3A44" offset="0%"></stop>
            <stop stop-color="#C31162" offset="100%"></stop>
        </linearGradient>
        <linearGradient x1="-19.3294314%" y1="86.7794359%" x2="41.8410943%" y2="58.8748031%" id="linearGradient-4">
            <stop stop-color="#32A071" offset="0%"></stop>
            <stop stop-color="#2DA771" offset="6.85%"></stop>
            <stop stop-color="#15CF74" offset="47.62%"></stop>
            <stop stop-color="#06E775" offset="80.09%"></stop>
            <stop stop-color="#00F076" offset="100%"></stop>
        </linearGradient>
        <linearGradient x1="86.2467091%" y1="55.3546626%" x2="-50.1419805%" y2="35.7012617%" id="linearGradient-5">
            <stop stop-color="#CC2E36" offset="0%"></stop>
            <stop stop-color="#9C0E4E" offset="100%"></stop>
        </linearGradient>
        <linearGradient x1="80.7629976%" y1="1531.77292%" x2="36.096776%" y2="449.57113%" id="linearGradient-6">
            <stop stop-color="#008DE0" offset="0%"></stop>
            <stop stop-color="#008DE0" offset="0.657%"></stop>
            <stop stop-color="#00A7E0" offset="26.01%"></stop>
            <stop stop-color="#00B8E0" offset="51.22%"></stop>
            <stop stop-color="#00C4E0" offset="76.04%"></stop>
            <stop stop-color="#00C7E0" offset="100%"></stop>
        </linearGradient>
        <linearGradient x1="112.786186%" y1="100.021659%" x2="-288.225422%" y2="100.021659%" id="linearGradient-7">
            <stop stop-color="#E0C500" offset="0%"></stop>
            <stop stop-color="#E0A600" offset="40.87%"></stop>
            <stop stop-color="#E09100" offset="77.54%"></stop>
            <stop stop-color="#E08900" offset="100%"></stop>
        </linearGradient>
        <linearGradient x1="112.785213%" y1="-0.0233356462%" x2="-288.198103%" y2="-0.0233356462%" id="linearGradient-8">
            <stop stop-color="#FFE840" offset="0%"></stop>
            <stop stop-color="#FFCE40" offset="40.87%"></stop>
            <stop stop-color="#FFBC40" offset="77.54%"></stop>
            <stop stop-color="#FFB540" offset="100%"></stop>
        </linearGradient>
        <linearGradient x1="80.4503806%" y1="23.3835631%" x2="36.2385605%" y2="-1009.83893%" id="linearGradient-9">
            <stop stop-color="#40B8FF" offset="0%"></stop>
            <stop stop-color="#40B9FF" offset="0.657%"></stop>
            <stop stop-color="#40CEFF" offset="26.01%"></stop>
            <stop stop-color="#40DDFF" offset="51.22%"></stop>
            <stop stop-color="#40E7FF" offset="76.04%"></stop>
            <stop stop-color="#40EAFF" offset="100%"></stop>
        </linearGradient>
        <linearGradient x1="-18.8070074%" y1="59.8155519%" x2="42.0959956%" y2="51.1086397%" id="linearGradient-10">
            <stop stop-color="#65B895" offset="0%"></stop>
            <stop stop-color="#62BD95" offset="6.85%"></stop>
            <stop stop-color="#50DB97" offset="47.62%"></stop>
            <stop stop-color="#44ED98" offset="80.09%"></stop>
            <stop stop-color="#40F498" offset="100%"></stop>
        </linearGradient>
    </defs>
    <g id="Page-1" stroke="none" stroke-width="1" fill="none" fill-rule="evenodd">
        <g id="Google_Play-Badge-Logo.wine">
            <path d="M34.1880684,273.946541 C15.3848462,273.946541 0,258.537071 0,239.703378 L0,34.2434716 C0,15.4094699 15.3845384,0 34.1880684,0 L888.888547,0 C907.691769,0 923.076615,15.4094699 923.076615,34.2434716 L923.076615,239.70307 C923.076615,258.537071 907.692077,273.946541 888.888547,273.946541 L34.1880684,273.946541 Z" id="Path" fill="#FFFFFF" fill-rule="nonzero"></path>
            <path d="M731.186486,205.459906 L743.945222,205.459906 L743.945222,119.843532 L731.186178,119.843532 L731.186486,205.459906 Z M846.105907,150.684325 L831.480392,187.80353 L831.042707,187.80353 L815.86316,150.684325 L802.119479,150.684325 L824.881874,202.56509 L811.904296,231.423373 L825.217063,231.423373 L860.294045,150.684325 L846.105907,150.684325 Z M773.750283,195.735725 C769.565805,195.735725 763.740161,193.643332 763.740161,188.464366 C763.740161,181.855999 771.00167,179.322842 777.264691,179.322842 C782.87888,179.322842 785.511146,180.534325 788.923058,182.188418 C787.931649,190.117536 781.114289,195.735725 773.750283,195.735725 L773.750283,195.735725 Z M775.288953,148.81139 C766.051089,148.81139 756.485423,152.888141 752.526558,161.920397 L763.849428,166.655522 C766.269931,161.920397 770.776056,160.376495 775.507795,160.376495 C782.106006,160.376495 788.813791,164.343978 788.923058,171.393417 L788.923058,172.273712 C786.611823,170.95173 781.66832,168.969528 775.617062,168.969528 C763.412051,168.969528 750.981117,175.686855 750.981117,188.2446 C750.981117,199.700438 760.991548,207.081064 772.20515,207.081064 C780.786487,207.081064 785.511146,203.225927 788.485373,198.710568 L788.923058,198.710568 L788.923058,205.31832 L801.237645,205.31832 L801.237645,172.492554 C801.237645,157.294848 789.914468,148.81139 775.288953,148.81139 L775.288953,148.81139 Z M696.437614,161.106586 L678.290612,161.106586 L678.290612,131.759524 L696.437614,131.759524 C705.976194,131.759524 711.391547,139.669866 711.391547,146.432747 C711.391547,153.067585 705.975887,161.106586 696.437614,161.106586 Z M696.109504,119.843532 L665.53834,119.843532 L665.53834,205.459906 L678.290304,205.459906 L678.290304,173.022578 L696.109504,173.022578 C710.249626,173.022578 724.150283,162.768066 724.150283,146.432747 C724.150283,130.098044 710.249626,119.843532 696.109504,119.843532 Z M529.401657,195.751423 C520.58732,195.751423 513.207617,188.359716 513.207617,178.207084 C513.207617,167.947955 520.58732,160.443595 529.401657,160.443595 C538.103957,160.443595 544.933322,167.947647 544.933322,178.207084 C544.933322,188.359716 538.103957,195.751423 529.401965,195.751423 L529.401657,195.751423 Z M544.051796,155.478547 L543.611033,155.478547 C540.74792,152.05894 535.237458,148.969597 528.298826,148.969597 C513.757955,148.969597 500.430106,161.767731 500.430106,178.207084 C500.430106,194.53717 513.757647,207.225728 528.298826,207.225728 C535.237458,207.225728 540.74792,204.135462 543.611033,200.606896 L544.051796,200.606896 L544.051796,204.799069 C544.051796,215.944649 538.103957,221.902337 528.520439,221.902337 C520.699357,221.902337 515.852195,216.273375 513.867222,211.529939 L502.743496,216.163799 C505.937797,223.887002 514.420331,233.376643 528.520439,233.376643 C543.501458,233.376643 556.169701,224.547839 556.169701,203.033555 L556.169701,150.735112 L544.051796,150.735112 L544.051796,155.478547 Z M564.981269,205.459906 L577.759396,205.459906 L577.759396,119.840454 L564.981269,119.840454 L564.981269,205.459906 Z M596.596783,177.214752 C596.265903,165.959596 605.299083,160.223829 611.797568,160.223829 C616.868189,160.223829 621.162243,162.760063 622.591337,166.404361 L596.596783,177.214752 Z M636.253145,167.505961 C633.832334,160.994241 626.447706,148.969597 611.356497,148.969597 C596.375478,148.969597 583.928847,160.77509 583.928847,178.097509 C583.928847,194.427595 596.265903,207.225728 612.788361,207.225728 C626.119596,207.225728 633.832334,199.060531 637.025711,194.317096 L627.111005,187.695801 C623.80836,192.551582 619.289,195.751423 612.788361,195.751423 C606.289876,195.751423 601.664327,192.771348 598.688253,186.925389 L637.572664,170.815377 L636.253145,167.505961 Z M326.453362,157.907053 L326.453362,170.264115 L355.974636,170.264115 C355.093418,177.214752 352.780027,182.289682 349.254539,185.820711 C344.959869,190.12523 338.24008,194.868666 326.453054,194.868666 C308.276811,194.868666 294.067743,180.194519 294.067743,161.989343 C294.067743,143.784475 308.276811,129.108482 326.453362,129.108482 C336.257877,129.108482 343.415967,132.971007 348.704201,137.936055 L357.4065,129.22052 C350.026797,122.157538 340.221667,116.751419 326.453362,116.751419 C301.557022,116.751419 280.627549,137.053605 280.627549,161.989343 C280.627549,186.925389 301.557022,207.225728 326.453362,207.225728 C339.893249,207.225728 350.026797,202.814404 357.956839,194.53717 C366.1088,186.371973 368.643496,174.897975 368.643496,165.630871 C368.643496,162.760063 368.424037,160.114254 367.980812,157.907053 L326.453362,157.907053 Z M402.206431,195.751423 C393.392094,195.751423 385.790778,188.468983 385.790778,178.097509 C385.790778,167.615536 393.392094,160.443595 402.206431,160.443595 C411.017383,160.443595 418.618699,167.615536 418.618699,178.097509 C418.618699,188.469291 411.017383,195.751423 402.206431,195.751423 Z M402.206431,148.969597 C386.121658,148.969597 373.012652,161.216161 373.012652,178.097509 C373.012652,194.868666 386.121658,207.225728 402.206431,207.225728 C418.287819,207.225728 431.396826,194.868666 431.396826,178.097509 C431.396826,161.216161 418.287819,148.969597 402.206431,148.969597 Z M465.886226,195.751423 C457.075582,195.751423 449.473343,188.468983 449.473343,178.097509 C449.473343,167.615536 457.075582,160.443595 465.886534,160.443595 C474.698101,160.443595 482.299416,167.615536 482.299416,178.097509 C482.299416,188.469291 474.698101,195.751423 465.886534,195.751423 L465.886226,195.751423 Z M465.886226,148.969597 C449.802376,148.969597 436.696139,161.216161 436.696139,178.097509 C436.696139,194.868666 449.802376,207.225728 465.886534,207.225728 C481.968536,207.225728 495.077851,194.868666 495.077851,178.097509 C495.077851,161.216161 481.968536,148.969597 465.886534,148.969597 L465.886226,148.969597 Z" id="Shape" fill="#000000" fill-rule="nonzero"></path>
            <text id="NOVĚ-ceník-i-jako-Ap" font-family="AvenirNextCondensed-DemiBold, Avenir Next Condensed" font-size="64" font-style="condensed" font-weight="500" letter-spacing="-1.84615385" fill="#000000">
                <tspan x="280" y="87">NOVĚ ceník i jako Aplikace</tspan>
            </text>
            <path d="M68.189305,62.2507001 L68.189305,61.212814 L68.189305,212.712797 L68.189305,211.714924 C68.189305,215.954806 69.3641601,219.229134 71.3537497,221.33784 L71.8616121,221.824773 C73.4719977,223.282492 75.5369972,224.055366 77.9036362,224.052921 C80.2161032,224.052921 82.8178978,223.314503 85.5637408,221.755211 L184.812989,165.272289 L218.90441,145.868558 C223.234168,143.404964 225.664828,140.226668 226.071118,136.989276 L226.071118,136.976041 C225.664828,133.731262 223.234168,130.555428 218.904718,128.091526 L184.810219,108.690257 L85.5640486,52.2073356 C82.8123575,50.6452739 80.2087161,49.9041025 77.8900932,49.9041025 C75.5262244,49.9041025 73.4639951,50.6745144 71.854225,52.1273088 C69.5589946,54.2009265 68.189305,57.6596237 68.189305,62.2507001 Z" id="Path" fill="#00C1FF" fill-rule="nonzero"></path>
            <path d="M71.8619199,52.1273088 L71.3537497,52.6142412 C69.3641601,54.7226398 68.189305,57.9972752 68.189305,62.2371571 L68.189305,61.2392844 L68.189305,212.701717 L68.189305,211.701382 C68.189305,216.292458 69.5589946,219.751155 71.8536094,221.824773 L156.570297,136.973271 L71.8619199,52.1273088" id="Path" fill="url(#linearGradient-1)" fill-rule="nonzero" transform="translate(112.379801, 136.976041) scale(-1, 1) rotate(-180.000000) translate(-112.379801, -136.976041) "></path>
            <path d="M184.812989,108.690257 L156.570297,136.983428 L184.810527,165.271981 L218.904718,145.871021 C223.234168,143.406811 225.664828,140.231285 226.071118,136.986198 L226.071118,136.973271 C225.664828,133.735878 223.234168,130.557275 218.904718,128.093988 L184.813297,108.690257" id="Path" fill="url(#linearGradient-2)" fill-rule="nonzero" transform="translate(191.320708, 136.981119) scale(-1, 1) rotate(-180.000000) translate(-191.320708, -136.981119) "></path>
            <path d="M77.9036362,136.978503 C75.537305,136.976353 73.4723055,137.749535 71.8622277,139.204792 L71.8622277,139.206947 L156.570605,224.052908 L184.813297,195.759738 L85.5637408,139.276508 C82.8178978,137.716909 80.2161032,136.978503 77.9036362,136.978503" id="Path" fill="url(#linearGradient-3)" fill-rule="nonzero" transform="translate(128.337762, 180.515706) scale(-1, 1) rotate(-180.000000) translate(-128.337762, -180.515706) "></path>
            <path d="M156.570297,49.9044103 L71.8533016,134.755912 C73.4636873,136.208707 75.5259166,136.979119 77.8894776,136.979119 C80.2081005,136.979119 82.8120497,136.238255 85.563433,134.675886 L184.810219,78.1929639 L156.569989,49.9044103" id="Path" fill="url(#linearGradient-4)" fill-rule="nonzero" transform="translate(128.331760, 93.441765) scale(-1, 1) rotate(-180.000000) translate(-128.331760, -93.441765) "></path>
            <path d="M77.9064063,165.271981 C75.5400752,165.271981 73.4723055,166.045164 71.8619199,167.50042 L71.8591497,167.497958 C71.7531235,167.492943 71.67048,167.404223 71.6729881,167.298108 C71.6754961,167.191993 71.7622388,167.107276 71.8683836,167.107276 C71.9745284,167.107276 72.0612711,167.191993 72.0637791,167.298108 C72.0662872,167.404223 71.9836437,167.492943 71.8776175,167.497958 L71.3974566,167.947339 C71.3836058,167.960882 71.3706784,167.97658 71.3543653,167.992277 L71.8622277,168.501063 C73.4726133,167.045806 75.537305,166.272624 77.9042518,166.275395 C80.216411,166.275395 82.8182056,167.013488 85.5640486,168.573087 L184.813297,225.056009 L185.449202,224.418873 L184.805294,224.052596 L85.5637408,167.572752 C83.061364,166.151969 80.681182,165.411105 78.531231,165.287679 C78.5261011,165.287682 78.5209712,165.287682 78.5158413,165.287679" id="Path" fill="url(#linearGradient-5)" fill-rule="nonzero" transform="translate(128.401784, 195.163995) scale(-1, 1) rotate(-180.000000) translate(-128.401784, -195.163995) "></path>
            <path d="M71.3537497,211.714924 C69.3641601,213.823323 68.189305,217.095188 68.189305,221.33784 L68.189305,222.335713 C68.189305,218.095831 69.3641601,214.821504 71.3537497,212.712797 L71.8616121,212.225865 L71.3537497,211.714924" id="Path" fill="url(#linearGradient-6)" fill-rule="nonzero" transform="translate(70.025459, 217.025319) scale(-1, 1) rotate(-180.000000) translate(-70.025459, -217.025319) "></path>
            <path d="M185.448895,136.989276 L184.812989,137.626413 L218.90441,157.029836 C223.234168,159.493123 225.664828,162.671726 226.071118,165.909118 C226.071118,164.721028 225.806414,163.533245 225.2807,162.377166 C224.220037,160.047154 222.094402,157.845494 218.904718,156.029193 L185.448895,136.988968" id="Path" fill="url(#linearGradient-7)" fill-rule="nonzero" transform="translate(205.442054, 151.449043) scale(-1, 1) rotate(-180.000000) translate(-205.442054, -151.449043) "></path>
            <path d="M226.071118,108.053429 C225.664828,111.298516 223.234168,114.474041 218.904718,116.938251 L184.810219,136.339212 L185.446124,136.976349 L185.448895,136.976349 L218.904718,117.936124 C223.678009,115.217983 226.068348,111.636167 226.071118,108.053429" id="Path" fill="url(#linearGradient-8)" fill-rule="nonzero" transform="translate(205.440669, 122.514889) scale(-1, 1) rotate(-180.000000) translate(-205.440669, -122.514889) "></path>
            <path d="M68.189305,52.6708755 C68.189305,53.0482327 68.1994622,53.4172794 68.2188533,53.7755533 L68.2188533,53.7918664 C68.2188533,53.7967912 68.2188533,53.8020237 68.2207001,53.807564 L68.2207001,53.8478852 C68.4266152,57.4998778 69.5589946,60.3485244 71.3537497,62.2507001 L71.8536094,61.7480702 C69.5589946,59.6741447 68.189305,56.2154476 68.189305,51.6243711 L68.189305,52.6708755 Z" id="Path" fill="url(#linearGradient-9)" fill-rule="nonzero" transform="translate(70.021457, 56.937536) scale(-1, 1) rotate(-180.000000) translate(-70.021457, -56.937536) "></path>
            <path d="M85.5637408,105.865619 C82.8123575,107.427681 80.2087161,108.168544 77.8900932,108.168544 C75.5262244,108.168544 73.4639951,107.398132 71.8539172,105.945338 L71.3540575,106.448276 C71.35929,106.453816 71.3676005,106.459356 71.372833,106.464589 C72.9702912,107.906302 75.010667,108.676714 77.353298,108.690565 L77.4037764,108.690565 C79.7223993,108.690565 82.3260408,107.949394 85.077424,106.386716 L185.448895,50.0213725 L184.810219,49.3820815 L85.5637408,105.865619 Z" id="Path" fill="url(#linearGradient-10)" fill-rule="nonzero" transform="translate(128.401476, 79.036323) scale(-1, 1) rotate(-180.000000) translate(-128.401476, -79.036323) "></path>
        </g>
    </g>
</svg>